<svg width="20" height="20" viewBox="0 0 20 20" fill="none" xmlns="http://www.w3.org/2000/svg"><path d="M13.9582 2.96675V1.66675C13.9582 1.32508 13.6749 1.04175 13.3332 1.04175C12.9915 1.04175 12.7082 1.32508 12.7082 1.66675V2.91675H7.29153V1.66675C7.29153 1.32508 7.0082 1.04175 6.66653 1.04175C6.32487 1.04175 6.04153 1.32508 6.04153 1.66675V2.96675C3.79153 3.17508 2.69987 4.51675 2.5332 6.50841C2.51653 6.75008 2.71653 6.95008 2.94987 6.95008H17.0499C17.2915 6.95008 17.4915 6.74175 17.4665 6.50841C17.2999 4.51675 16.2082 3.17508 13.9582 2.96675Z" fill="#40C4AA"></path><path opacity="0.4" d="M17.5 9.03333V10.4833C17.5 10.9917 17.05 11.3833 16.55 11.3C16.3167 11.2667 16.075 11.2417 15.8333 11.2417C13.3083 11.2417 11.25 13.3 11.25 15.825C11.25 16.2083 11.4 16.7417 11.5583 17.225C11.7417 17.7667 11.3417 18.325 10.7667 18.325H6.66667C3.75 18.325 2.5 16.6583 2.5 14.1583V9.02498C2.5 8.56665 2.875 8.19165 3.33333 8.19165H16.6667C17.125 8.19998 17.5 8.57499 17.5 9.03333Z" fill="#40C4AA"></path><path d="M15.8333 12.5C13.9917 12.5 12.5 13.9917 12.5 15.8333C12.5 16.4583 12.675 17.05 12.9833 17.55C13.5583 18.5167 14.6167 19.1667 15.8333 19.1667C17.05 19.1667 18.1083 18.5167 18.6833 17.55C18.9917 17.05 19.1667 16.4583 19.1667 15.8333C19.1667 13.9917 17.675 12.5 15.8333 12.5ZM17.5583 15.475L15.7833 17.1167C15.6667 17.225 15.5083 17.2833 15.3583 17.2833C15.2 17.2833 15.0417 17.225 14.9167 17.1L14.0917 16.275C13.85 16.0333 13.85 15.6333 14.0917 15.3917C14.3333 15.15 14.7333 15.15 14.975 15.3917L15.375 15.7917L16.7083 14.5583C16.9583 14.325 17.3583 14.3417 17.5917 14.5917C17.825 14.8417 17.8083 15.2333 17.5583 15.475Z" fill="#40C4AA"></path><path d="M7.08333 12.4999C6.86667 12.4999 6.65 12.4083 6.49167 12.2583C6.34167 12.0999 6.25 11.8833 6.25 11.6666C6.25 11.4499 6.34167 11.2333 6.49167 11.0749C6.68333 10.8833 6.975 10.7916 7.25 10.8499C7.3 10.8583 7.35 10.8749 7.4 10.8999C7.45 10.9166 7.5 10.9416 7.55 10.9749C7.59166 11.0083 7.63333 11.0416 7.675 11.0749C7.825 11.2333 7.91667 11.4499 7.91667 11.6666C7.91667 11.8833 7.825 12.0999 7.675 12.2583C7.63333 12.2916 7.59166 12.3249 7.55 12.3582C7.5 12.3916 7.45 12.4166 7.4 12.4333C7.35 12.4583 7.3 12.4749 7.25 12.4833C7.19166 12.4916 7.13333 12.4999 7.08333 12.4999Z" fill="#40C4AA"></path><path d="M9.99984 12.5C9.78317 12.5 9.5665 12.4083 9.40817 12.2583C9.25817 12.1 9.1665 11.8833 9.1665 11.6667C9.1665 11.45 9.25817 11.2333 9.40817 11.075C9.72484 10.7667 10.2832 10.7667 10.5915 11.075C10.7415 11.2333 10.8332 11.45 10.8332 11.6667C10.8332 11.8833 10.7415 12.1 10.5915 12.2583C10.4332 12.4083 10.2165 12.5 9.99984 12.5Z" fill="#40C4AA"></path><path d="M7.08333 15.4167C6.86667 15.4167 6.65 15.325 6.49167 15.175C6.34167 15.0167 6.25 14.8001 6.25 14.5834C6.25 14.3667 6.34167 14.1501 6.49167 13.9917C6.575 13.9167 6.65834 13.8584 6.76667 13.8167C7.075 13.6834 7.44167 13.7584 7.675 13.9917C7.825 14.1501 7.91667 14.3667 7.91667 14.5834C7.91667 14.8001 7.825 15.0167 7.675 15.175C7.51667 15.325 7.3 15.4167 7.08333 15.4167Z" fill="#40C4AA"></path></svg>