<svg width="20" height="20" viewBox="0 0 20 20" fill="none" xmlns="http://www.w3.org/2000/svg"><path d="M4.97516 0.833252H2.52516C1.46683 0.833252 0.833496 1.46659 0.833496 2.52492V4.97492C0.833496 6.03325 1.46683 6.66659 2.52516 6.66659H4.97516C6.0335 6.66659 6.66683 6.03325 6.66683 4.97492V2.52492C6.66683 1.46659 6.0335 0.833252 4.97516 0.833252ZM5.39183 4.63325C5.60016 4.84159 5.60016 5.18325 5.39183 5.39159C5.2835 5.49159 5.14183 5.54159 5.0085 5.54159C4.87516 5.54159 4.74183 5.49159 4.6335 5.39159L3.74183 4.50825L2.87516 5.39159C2.76683 5.49159 2.6335 5.54159 2.4835 5.54159C2.35016 5.54159 2.21683 5.49159 2.1085 5.39159C1.90016 5.18325 1.90016 4.84159 2.1085 4.63325L3.00016 3.74992L2.11683 2.87492C1.9085 2.66659 1.9085 2.32492 2.11683 2.11659C2.32516 1.90825 2.66683 1.90825 2.87516 2.11659L3.74183 2.99992L4.62516 2.11659C4.8335 1.90825 5.17516 1.90825 5.3835 2.11659C5.59183 2.32492 5.59183 2.66659 5.3835 2.87492L4.5085 3.74992L5.39183 4.63325Z" fill="#FFA01C"></path><path opacity="0.4" d="M13.8585 1.66675H6.4835C6.60016 1.90841 6.66683 2.19175 6.66683 2.52508V4.97508C6.66683 6.03341 6.0335 6.66675 4.97516 6.66675H2.52516C2.36683 6.66675 2.22516 6.65008 2.0835 6.61675V14.2751C2.0835 16.5167 3.90016 18.3334 6.14183 18.3334H12.7835C12.9252 18.3334 13.0668 18.2834 13.1752 18.1667C14.4085 16.9251 16.5585 14.7584 17.7668 13.5417C17.8752 13.4334 17.9168 13.3084 17.9168 13.1834V5.72508C17.9168 3.48341 16.1002 1.66675 13.8585 1.66675Z" fill="#FFA01C"></path><path d="M17.9167 13.1832C17.9167 13.3082 17.875 13.4332 17.7667 13.5416C16.5584 14.7582 14.4084 16.9249 13.175 18.1666C13.0667 18.2832 12.925 18.3332 12.7834 18.3332C12.5084 18.3332 12.2417 18.1166 12.2417 17.7999V14.8832C12.2417 13.6666 13.275 12.6582 14.5417 12.6582C15.3334 12.6499 16.4334 12.6499 17.375 12.6499C17.7 12.6499 17.9167 12.9082 17.9167 13.1832Z" fill="#FFA01C"></path><path d="M12.3166 10.5916H6.1333C5.7833 10.5916 5.5083 10.3082 5.5083 9.96655C5.5083 9.62489 5.79163 9.34155 6.1333 9.34155H12.3166C12.6666 9.34155 12.9416 9.62489 12.9416 9.96655C12.9416 10.3082 12.6666 10.5916 12.3166 10.5916Z" fill="#FFA01C"></path><path d="M9.99997 13.6833H6.1333C5.7833 13.6833 5.5083 13.4 5.5083 13.0583C5.5083 12.7083 5.79163 12.4333 6.1333 12.4333H9.99997C10.35 12.4333 10.625 12.7167 10.625 13.0583C10.625 13.4 10.35 13.6833 9.99997 13.6833Z" fill="#FFA01C"></path></svg>