<svg width="20" height="20" viewBox="0 0 20 20" fill="none" xmlns="http://www.w3.org/2000/svg"><path opacity="0.4" d="M18.2082 9.5083L17.6915 15.1583C17.5165 16.825 16.8332 18.525 13.1665 18.525H6.8165C3.14984 18.525 2.4665 16.825 2.29984 15.1666L1.7915 9.74163C1.79984 9.74997 1.80817 9.7583 1.82484 9.76663C2.10817 9.94997 2.38317 10.1333 2.68317 10.3C2.79984 10.375 2.92484 10.4416 3.04984 10.5083C3.9915 11.025 4.99984 11.4333 6.0415 11.7166C6.45817 11.8416 6.88317 11.9333 7.3165 12.0083C7.48317 13.3416 8.62484 14.375 9.99984 14.375C11.3915 14.375 12.5415 13.3166 12.6915 11.9583V11.95C13.1165 11.8666 13.5415 11.7583 13.9582 11.6333C14.9998 11.3083 16.0082 10.875 16.9498 10.325C16.9998 10.3 17.0415 10.275 17.0748 10.25C17.4582 10.0416 17.8248 9.79997 18.1748 9.54997C18.1915 9.54163 18.1998 9.52497 18.2082 9.5083Z" fill="#6E56CF"></path><path d="M17.5749 5.81676C16.8665 5.03343 15.6915 4.64176 13.9665 4.64176H13.7665V4.60843C13.7665 3.20843 13.7665 1.4751 10.6332 1.4751H9.36653C6.2332 1.4751 6.2332 3.20843 6.2332 4.60843V4.64176H6.0332C4.3082 4.64176 3.12487 5.03343 2.42487 5.81676C1.59987 6.74176 1.62487 7.96676 1.7082 8.80843L1.71654 8.86677L1.79154 9.74176C1.79987 9.7501 1.81654 9.75843 1.8332 9.76676C2.11654 9.9501 2.39154 10.1334 2.69154 10.3001C2.8082 10.3751 2.9332 10.4418 3.0582 10.5084C3.99987 11.0251 5.0082 11.4334 6.04153 11.7168C6.06653 13.8751 7.8332 15.6251 9.99987 15.6251C12.1832 15.6251 13.9582 13.8501 13.9582 11.6668V11.6334C15.0082 11.3168 16.0165 10.8751 16.9582 10.3251C17.0082 10.3001 17.0415 10.2751 17.0832 10.2501C17.4665 10.0418 17.8332 9.8001 18.1832 9.5501C18.1915 9.54176 18.2082 9.5251 18.2165 9.50843L18.2499 9.20843L18.2915 8.81676C18.2999 8.76676 18.2999 8.7251 18.3082 8.66676C18.3749 7.83343 18.3582 6.68343 17.5749 5.81676ZM7.42487 4.60843C7.42487 3.19176 7.42487 2.65843 9.36653 2.65843H10.6332C12.5749 2.65843 12.5749 3.19176 12.5749 4.60843V4.64176H7.42487V4.60843ZM9.99987 14.3751C8.62487 14.3751 7.4832 13.3418 7.31653 12.0084C7.29987 11.9001 7.29153 11.7834 7.29153 11.6668C7.29153 10.1751 8.5082 8.95843 9.99987 8.95843C11.4915 8.95843 12.7082 10.1751 12.7082 11.6668C12.7082 11.7668 12.6999 11.8584 12.6915 11.9501V11.9584C12.5415 13.3168 11.3915 14.3751 9.99987 14.3751Z" fill="#6E56CF"></path><path d="M9.52507 13.3583C9.36673 13.3583 9.2084 13.3 9.0834 13.175L8.2584 12.3583C8.01673 12.1166 8.01673 11.7166 8.2584 11.475C8.50007 11.2333 8.90007 11.2333 9.14173 11.475L9.54173 11.875L10.8834 10.6416C11.1334 10.4083 11.5334 10.425 11.7667 10.675C12.0001 10.925 11.9834 11.325 11.7334 11.5583L9.9584 13.2C9.82507 13.3 9.67507 13.3583 9.52507 13.3583Z" fill="#6E56CF"></path></svg>