<svg width="20" height="20" viewBox="0 0 20 20" fill="none" xmlns="http://www.w3.org/2000/svg"><path d="M18.3335 4.99991V7.01657C18.3335 8.33324 17.5002 9.16657 16.1835 9.16657H13.3335V3.34157C13.3335 2.41657 14.0918 1.65824 15.0168 1.66657C15.9252 1.67491 16.7585 2.04157 17.3585 2.64157C17.9585 3.24991 18.3335 4.08324 18.3335 4.99991Z" fill="#006ADC"></path><path opacity="0.4" d="M1.6665 5.83342V17.5001C1.6665 18.1917 2.44984 18.5834 2.99984 18.1667L4.42484 17.1001C4.75817 16.8501 5.22484 16.8834 5.52484 17.1834L6.90817 18.5751C7.23317 18.9001 7.7665 18.9001 8.0915 18.5751L9.4915 17.1751C9.78317 16.8834 10.2498 16.8501 10.5748 17.1001L11.9998 18.1667C12.5498 18.5751 13.3332 18.1834 13.3332 17.5001V3.33341C13.3332 2.41675 14.0832 1.66675 14.9998 1.66675H5.83317H4.99984C2.49984 1.66675 1.6665 3.15841 1.6665 5.00008V5.83342Z" fill="#006ADC"></path><path d="M10 10.2168H7.5C7.15833 10.2168 6.875 10.5001 6.875 10.8418C6.875 11.1835 7.15833 11.4668 7.5 11.4668H10C10.3417 11.4668 10.625 11.1835 10.625 10.8418C10.625 10.5001 10.3417 10.2168 10 10.2168Z" fill="#006ADC"></path><path d="M7.5 8.1333H10C10.3417 8.1333 10.625 7.84997 10.625 7.5083C10.625 7.16663 10.3417 6.8833 10 6.8833H7.5C7.15833 6.8833 6.875 7.16663 6.875 7.5083C6.875 7.84997 7.15833 8.1333 7.5 8.1333Z" fill="#006ADC"></path><path d="M4.97493 6.67505C4.50827 6.67505 4.1416 7.05005 4.1416 7.50838C4.1416 7.96672 4.5166 8.34172 4.97493 8.34172C5.43327 8.34172 5.80827 7.96672 5.80827 7.50838C5.80827 7.05005 5.43327 6.67505 4.97493 6.67505Z" fill="#006ADC"></path><path d="M4.97493 10.0083C4.50827 10.0083 4.1416 10.3833 4.1416 10.8416C4.1416 11.3 4.5166 11.675 4.97493 11.675C5.43327 11.675 5.80827 11.3 5.80827 10.8416C5.80827 10.3833 5.43327 10.0083 4.97493 10.0083Z" fill="#006ADC"></path></svg>