<svg width="16" height="15" viewBox="0 0 16 15" fill="none" xmlns="http://www.w3.org/2000/svg">
<path fill-rule="evenodd" clip-rule="evenodd" d="M11.3334 6.16602C11.3334 8.74335 9.24408 10.8327 6.66675 10.8327C4.08941 10.8327 2.00008 8.74335 2.00008 6.16602C2.00008 3.58868 4.08941 1.49935 6.66675 1.49935C9.24408 1.49935 11.3334 3.58868 11.3334 6.16602ZM10.4119 10.8539C9.38543 11.6751 8.08343 12.166 6.66675 12.166C3.35304 12.166 0.666748 9.47972 0.666748 6.16602C0.666748 2.85231 3.35304 0.166016 6.66675 0.166016C9.98046 0.166016 12.6667 2.85231 12.6667 6.16602C12.6667 7.5827 12.1758 8.8847 11.3546 9.91114L15.1382 13.6945C15.3985 13.9549 15.3985 14.3771 15.1382 14.6375C14.8778 14.8977 14.4557 14.8977 14.1953 14.6375L10.4119 10.8539Z" fill="black"/>
</svg>
