<svg width="20" height="20" viewBox="0 0 20 20" fill="none" xmlns="http://www.w3.org/2000/svg"><path d="M10.0002 10.0001C12.3013 10.0001 14.1668 8.1346 14.1668 5.83341C14.1668 3.53223 12.3013 1.66675 10.0002 1.66675C7.69898 1.66675 5.8335 3.53223 5.8335 5.83341C5.8335 8.1346 7.69898 10.0001 10.0002 10.0001Z" fill="#E5484D"></path><path opacity="0.4" d="M9.99983 12.0835C5.82483 12.0835 2.4248 14.8835 2.4248 18.3335C2.4248 18.5668 2.60814 18.7502 2.84147 18.7502H17.1582C17.3915 18.7502 17.5748 18.5668 17.5748 18.3335C17.5748 14.8835 14.1748 12.0835 9.99983 12.0835Z" fill="#E5484D"></path><path d="M17.8585 12.2833C17.1085 11.5333 16.5169 11.7749 16.0085 12.2833L13.0585 15.2333C12.9418 15.35 12.8335 15.5666 12.8085 15.7249L12.6502 16.8499C12.5919 17.2583 12.8752 17.5416 13.2835 17.4833L14.4085 17.3249C14.5668 17.2999 14.7919 17.1916 14.9002 17.0749L17.8502 14.125C18.3668 13.625 18.6085 13.0333 17.8585 12.2833Z" fill="#E5484D"></path></svg>